<svg width="14" height="16" viewBox="0 0 14 16" fill="none" xmlns="http://www.w3.org/2000/svg">
<path d="M12.1598 4.93803C11.9336 4.93803 11.7183 4.98522 11.5228 5.07001C11.285 4.46923 10.7019 4.04332 10.0214 4.04332C9.76863 4.04332 9.52922 4.10215 9.316 4.20677C9.04615 3.68652 8.50533 3.33027 7.88311 3.33027C7.70021 3.33027 7.52459 3.36146 7.3605 3.41819V1.62699C7.36055 0.729913 6.6357 0 5.74466 0C4.85372 0 4.12893 0.729913 4.12893 1.62699V8.07241L2.96518 6.74102C2.95705 6.73191 2.94875 6.72297 2.94013 6.7144C2.63457 6.40863 2.22789 6.23909 1.79503 6.23699C1.79223 6.23699 1.78959 6.23699 1.78678 6.23699C1.35495 6.23699 0.950636 6.40372 0.647606 6.70697C0.113303 7.24144 0.0837272 8.03476 0.56669 8.88383C1.19188 9.98229 1.87147 11.018 2.47112 11.932C2.90932 12.5999 3.32327 13.2307 3.62587 13.7523C3.88828 14.2049 4.58485 15.6729 4.59196 15.6877C4.68235 15.8785 4.87462 16.0001 5.08559 16.0001H11.9958C12.2332 16.0001 12.4433 15.8469 12.5161 15.6211C12.645 15.2203 13.7756 11.667 13.7756 10.2947V6.56518C13.7755 5.66788 13.0507 4.93803 12.1598 4.93803ZM11.6372 6.56512C11.6372 6.27055 11.8717 6.03093 12.1598 6.03093C12.4481 6.03093 12.6825 6.27055 12.6825 6.56512V10.2946C12.6825 11.2066 11.9816 13.6582 11.5949 14.9071H5.4302C5.20362 14.4356 4.77895 13.5622 4.57127 13.204C4.25359 12.6562 3.83161 12.0132 3.3849 11.3323C2.79414 10.4321 2.12467 9.41162 1.51656 8.34334C1.35786 8.06422 1.2124 7.68793 1.42067 7.47966C1.5178 7.38231 1.6486 7.33146 1.78975 7.32995C1.9275 7.33065 2.05706 7.38258 2.15635 7.47653L4.26404 9.88758C4.4138 10.0591 4.6545 10.1196 4.86751 10.0396C5.08074 9.9595 5.22194 9.75559 5.22194 9.52793V1.62699C5.22194 1.33247 5.45644 1.09296 5.74471 1.09296C6.03303 1.09296 6.26759 1.33247 6.26759 1.62699V6.72927C6.26759 7.03106 6.51233 7.27575 6.81407 7.27575C7.11581 7.27575 7.36055 7.03106 7.36055 6.72927V4.9571C7.36055 4.66274 7.595 4.42328 7.88316 4.42328C8.17143 4.42328 8.40588 4.66274 8.40588 4.9571V7.44205C8.40588 7.74401 8.65057 7.98859 8.95231 7.98859C9.2541 7.98859 9.49884 7.74406 9.49884 7.44205V5.67031C9.49884 5.37579 9.73329 5.13622 10.0215 5.13622C10.3098 5.13622 10.5443 5.37579 10.5443 5.67031V8.15543C10.5443 8.45717 10.789 8.70196 11.0908 8.70196C11.3927 8.70196 11.6373 8.45717 11.6373 8.15543V6.56512H11.6372Z" fill="#FCC607"/>
</svg>
