<svg width="16" height="18" viewBox="0 0 16 18" fill="none" xmlns="http://www.w3.org/2000/svg">
<path d="M13.7976 6.0049L15.7976 10.4736L15.7976 10.4736L15.7064 10.5145C15.7385 10.5863 15.7518 10.6616 15.7492 10.7353L13.7976 6.0049ZM13.7976 6.0049C13.701 5.78898 13.4865 5.65 13.25 5.65C13.2445 5.65 13.2369 5.65031 13.2323 5.65053C13.2323 5.65052 13.2322 5.65052 13.2321 5.65051L13.232 5.65051C13.2297 5.65035 13.2246 5.65 13.2187 5.65H8.6V4.49974C9.32627 4.25005 9.85 3.56048 9.85 2.75C9.85 1.72984 9.0202 0.9 8 0.9C6.9798 0.9 6.15 1.72984 6.15 2.75C6.15 3.56045 6.67373 4.25002 7.4 4.49974V5.65H2.78125C2.77524 5.65 2.76998 5.65038 2.76777 5.65053C2.76316 5.65032 2.75554 5.65 2.75 5.65C2.51345 5.65 2.29899 5.78898 2.20235 6.0049L0.202357 10.4736C0.202355 10.4736 0.202352 10.4736 0.202349 10.4736C0.1643 10.5586 0.148379 10.6475 0.150668 10.7341L0.150554 10.7358C0.150369 10.7384 0.15 10.7438 0.15 10.75V11.5C0.15 12.9337 1.31627 14.1 2.75 14.1C4.18373 14.1 5.35 12.9337 5.35 11.5V10.75C5.35 10.7438 5.34963 10.7384 5.34945 10.7358L5.34933 10.7341C5.35162 10.6475 5.3357 10.5586 5.29765 10.4736C5.29765 10.4736 5.29765 10.4736 5.29764 10.4736L3.67591 6.85H7.4V15.9H5C4.66861 15.9 4.4 16.1687 4.4 16.5C4.4 16.8313 4.66861 17.1 5 17.1H11C11.3314 17.1 11.6 16.8313 11.6 16.5C11.6 16.1687 11.3314 15.9 11 15.9H8.6V6.85H12.3241L10.7023 10.4736M13.7976 6.0049L15.8493 10.7341L15.8494 10.7358C15.8496 10.7384 15.85 10.7438 15.85 10.75V11.5C15.85 12.9337 14.6837 14.1 13.25 14.1C11.8162 14.1 10.65 12.9337 10.65 11.5V10.75C10.65 10.7438 10.6503 10.7384 10.6505 10.7357L10.6506 10.7341C10.6483 10.6475 10.6643 10.5586 10.7023 10.4736M10.7023 10.4736L10.7936 10.5145L10.7023 10.4736L10.7023 10.4736ZM7.35 2.75C7.35 2.39167 7.64169 2.1 8 2.1C8.3583 2.1 8.65 2.39167 8.65 2.75C8.65 3.10833 8.3583 3.4 8 3.4C7.64169 3.4 7.35 3.10833 7.35 2.75ZM1.66191 10.15L2.75 7.71877L3.83809 10.15H1.66191ZM4.15 11.5C4.15 12.2719 3.52187 12.9 2.75 12.9C1.97813 12.9 1.35 12.2719 1.35 11.5V11.35H4.15V11.5ZM13.25 7.71877L14.3381 10.15H12.1619L13.25 7.71877ZM14.65 11.5C14.65 12.2719 14.0219 12.9 13.25 12.9C12.4781 12.9 11.85 12.2719 11.85 11.5V11.35H14.65V11.5Z" fill="#FCC607" stroke="#FCC607" stroke-width="0.2"/>
</svg>
