<svg width="17" height="18" viewBox="0 0 17 18" fill="none" xmlns="http://www.w3.org/2000/svg">
<path d="M5.33202 11.5348H14.3444C15.3663 11.5348 16.2 10.7193 16.2 9.71963V6.01039C16.2 6.0071 16.2 6.00053 16.2 5.99724C16.2 5.98737 16.2 5.9808 16.2 5.97093C16.2 5.96436 16.2 5.95778 16.1966 5.9512C16.1966 5.94462 16.1933 5.93476 16.1933 5.92818C16.1933 5.92161 16.1899 5.91503 16.1899 5.90845C16.1866 5.90188 16.1866 5.8953 16.1832 5.88544C16.1798 5.87886 16.1798 5.87228 16.1765 5.86571C16.1731 5.85913 16.1731 5.85255 16.1697 5.84598C16.1664 5.8394 16.163 5.83282 16.1597 5.82296C16.1563 5.81638 16.1529 5.8098 16.1496 5.80652C16.1462 5.79994 16.1429 5.79336 16.1395 5.78679C16.1361 5.78021 16.1328 5.77692 16.1294 5.77034C16.126 5.76377 16.1193 5.75719 16.116 5.75061C16.1126 5.74404 16.1092 5.74075 16.1025 5.73417C16.0992 5.72759 16.0924 5.72431 16.0891 5.71773C16.0857 5.71115 16.079 5.70786 16.0756 5.70129C16.0723 5.69471 16.0655 5.69142 16.0622 5.68814C16.0555 5.68156 16.0521 5.67827 16.0454 5.67169C16.0386 5.66841 16.0353 5.66183 16.0286 5.65854C16.0218 5.65525 16.0151 5.64867 16.0084 5.64539C16.0017 5.6421 15.9983 5.63881 15.9916 5.63552C15.9849 5.63223 15.9781 5.62894 15.9714 5.62237C15.9647 5.61908 15.958 5.61579 15.9512 5.6125C15.9445 5.60921 15.9378 5.60593 15.9311 5.60264C15.9243 5.59935 15.9176 5.59606 15.9109 5.59277C15.9042 5.58949 15.8975 5.58948 15.8907 5.5862C15.884 5.58291 15.8739 5.57962 15.8672 5.57962C15.8605 5.57962 15.8538 5.57633 15.8504 5.57633C15.8403 5.57304 15.8336 5.57304 15.8235 5.57304C15.8201 5.57304 15.8168 5.56976 15.8101 5.56976L4.38742 4.02753V2.46886C4.38742 2.45242 4.38742 2.43597 4.38406 2.42282C4.38406 2.41953 4.38406 2.41624 4.3807 2.40967C4.3807 2.3998 4.37733 2.38994 4.37733 2.38007C4.37397 2.37021 4.37397 2.36363 4.37061 2.35377C4.37061 2.34719 4.36725 2.3439 4.36725 2.33732C4.36389 2.32746 4.36053 2.31759 4.35716 2.30773C4.35716 2.30444 4.3538 2.29786 4.3538 2.29458C4.35044 2.28471 4.34708 2.27813 4.34036 2.26827C4.337 2.26498 4.337 2.2584 4.33363 2.25512C4.33027 2.24854 4.32691 2.24196 4.32019 2.23539C4.31683 2.22881 4.31346 2.22552 4.3101 2.21894C4.30674 2.21237 4.30338 2.20908 4.30002 2.2025C4.29666 2.19593 4.28993 2.18935 4.28657 2.18277C4.28321 2.17948 4.27985 2.1762 4.27649 2.17291C4.26976 2.16633 4.26304 2.15975 4.25632 2.15318C4.25296 2.14989 4.24959 2.1466 4.24623 2.14331C4.23951 2.13674 4.23279 2.13016 4.2227 2.12358C4.21934 2.12029 4.21262 2.11701 4.20926 2.11372C4.20253 2.10714 4.19581 2.10385 4.18909 2.09728C4.179 2.0907 4.16892 2.08412 4.16219 2.08083C4.15883 2.07755 4.15547 2.07755 4.15211 2.07426C4.13866 2.06768 4.12185 2.0611 4.10841 2.05453L1.63093 1.03514C1.39898 0.939782 1.13341 1.04501 1.03593 1.2719C0.938441 1.4988 1.04601 1.75858 1.27796 1.85394L3.47643 2.76152V4.77398V5.09295V7.53947V9.72621V12.4884C3.47643 13.4091 4.18236 14.172 5.09335 14.2871C4.92863 14.5568 4.83115 14.8724 4.83115 15.2079C4.83115 16.1976 5.65473 17 6.66321 17C7.67168 17 8.49527 16.1944 8.49527 15.2079C8.49527 14.879 8.4045 14.5666 8.24315 14.3036H12.3241C12.1627 14.5699 12.072 14.879 12.072 15.2079C12.072 16.1976 12.8956 17 13.904 17C14.9125 17 15.7361 16.1944 15.7361 15.2079C15.7361 14.2214 14.9125 13.4157 13.904 13.4157H5.33202C4.80762 13.4157 4.38406 12.9981 4.38406 12.4884V11.2849C4.65971 11.4427 4.98578 11.5348 5.33202 11.5348ZM7.591 15.2046C7.591 15.7044 7.17417 16.1089 6.66657 16.1089C6.15897 16.1089 5.74213 15.7011 5.74213 15.2046C5.74213 14.708 6.15897 14.3003 6.66657 14.3003C7.17417 14.3003 7.591 14.7047 7.591 15.2046ZM14.8318 15.2046C14.8318 15.7044 14.415 16.1089 13.9074 16.1089C13.3998 16.1089 12.983 15.7011 12.983 15.2046C12.983 14.708 13.3998 14.3003 13.9074 14.3003C14.415 14.3003 14.8318 14.7047 14.8318 15.2046ZM14.3444 10.6469H5.33202C4.80762 10.6469 4.38406 10.2293 4.38406 9.71963V7.53289V5.08637V4.92195L15.2924 6.39184V9.71634C15.2924 10.2326 14.8655 10.6469 14.3444 10.6469Z" fill="#363636" stroke="#363636" stroke-width="0.5"/>
</svg>
