<svg width="20" height="20" viewBox="0 0 20 20" fill="none" xmlns="http://www.w3.org/2000/svg">
<path d="M19.9478 7.67197C19.8169 7.26699 19.4577 6.97935 19.0327 6.94105L13.2602 6.4169L10.9776 1.0742C10.8092 0.682654 10.4259 0.429199 10 0.429199C9.57416 0.429199 9.19085 0.682654 9.02254 1.07512L6.73992 6.4169L0.966461 6.94105C0.542255 6.98027 0.18397 7.26699 0.0522831 7.67197C-0.0794037 8.07695 0.042212 8.52114 0.363113 8.80115L4.72648 12.6278L3.43982 18.2956C3.34567 18.7123 3.50742 19.1431 3.85319 19.393C4.03905 19.5273 4.25649 19.5956 4.47577 19.5956C4.66483 19.5956 4.85236 19.5447 5.02067 19.444L10 16.468L14.9776 19.444C15.3418 19.6631 15.801 19.6431 16.146 19.393C16.4919 19.1423 16.6535 18.7114 16.5594 18.2956L15.2727 12.6278L19.6361 8.80191C19.957 8.52114 20.0795 8.07771 19.9478 7.67197Z" fill="#FCC607"/>
</svg>
