<svg width="99" height="20" viewBox="0 0 99 20" fill="none" xmlns="http://www.w3.org/2000/svg">
<path d="M6.55084 1.47919H5.42042C5.07146 1.47919 4.73444 1.55023 4.40795 1.69299C4.08076 1.83574 3.79008 2.06333 3.53731 2.37712C3.28314 2.69092 3.08093 3.09299 2.92646 3.5854C2.7748 4.07643 2.69897 4.66402 2.69897 5.34816C2.69897 6.01712 2.78323 6.58471 2.94963 7.04747C3.11674 7.51092 3.33791 7.89229 3.61384 8.1923C3.88978 8.49092 4.20152 8.70816 4.54978 8.84333C4.89733 8.97919 5.26033 9.04678 5.63808 9.04678H6.55084V1.4785V1.47919ZM2.19765 16.5516H0.217651L3.74374 10.1585C2.71372 9.67436 1.97718 9.02954 1.53484 8.22402C1.0925 7.41919 0.87063 6.46057 0.87063 5.34816C0.87063 4.49299 0.994205 3.7385 1.24065 3.08264C1.4864 2.42747 1.82131 1.87574 2.24189 1.42609C2.66316 0.976434 3.15254 0.638503 3.71074 0.410227C4.27033 0.182641 4.86082 0.0688477 5.48572 0.0688477H8.27176V16.5516H6.55084V10.4371H5.42042L2.19765 16.5516Z" fill="#FF0000"/>
<path fill-rule="evenodd" clip-rule="evenodd" d="M25.4872 18.6895H23.9426V16.5309H19.133V18.6895H17.5869V15.1406H18.2609C18.6099 14.4992 18.8816 13.8082 19.0782 13.0668C19.2748 12.3254 19.4223 11.5771 19.5241 10.822C19.6259 10.0668 19.687 9.3185 19.7094 8.57712C19.7319 7.83574 19.7424 7.13023 19.7424 6.45988V5.52057H24.618V15.1413H25.4886V18.6895H25.4872ZM33.019 16.0385C32.656 16.2385 32.2536 16.4123 31.8113 16.5626C31.369 16.7123 30.8704 16.7868 30.32 16.7868C29.1881 16.7868 28.281 16.3247 27.5992 15.3978C26.9182 14.4716 26.5762 13.1675 26.5762 11.4854C26.5762 10.673 26.6464 9.8923 26.7834 9.14471C26.9217 8.39506 27.1316 7.73299 27.4153 7.15575C27.6982 6.57781 28.057 6.11437 28.4923 5.76609C28.9277 5.41712 29.4493 5.24195 30.0581 5.24195C30.9582 5.24195 31.6842 5.68471 32.2347 6.56816C32.7866 7.45092 33.0632 8.75574 33.0632 10.4806V11.4213H28.3828C28.3828 12.6185 28.5892 13.5523 29.0028 14.2213C29.417 14.8916 30.0658 15.2268 30.9512 15.2268C31.2847 15.2268 31.6294 15.1806 31.9847 15.0888C32.3407 14.9951 32.6201 14.9061 32.8231 14.8199L33.0197 16.0392L33.019 16.0385ZM29.9928 6.61092C29.747 6.61092 29.5294 6.69574 29.3398 6.86609C29.1516 7.0385 28.9923 7.27643 28.8624 7.58333C28.7311 7.88954 28.6293 8.24954 28.5569 8.66264C28.4846 9.07643 28.4334 9.52471 28.4046 10.0102H31.2777V9.77575C31.2777 9.70402 31.2742 9.6254 31.2671 9.53988C31.2601 9.45437 31.2559 9.36195 31.2559 9.26195C31.1976 8.42057 31.0593 7.76816 30.8417 7.30471C30.624 6.84264 30.3417 6.61023 29.9935 6.61023L29.9928 6.61092ZM22.8978 6.88816V15.1406H19.786C20.0752 14.6702 20.3147 14.1144 20.5035 13.473C20.6931 12.8316 20.8448 12.1509 20.9599 11.4316C21.0765 10.7116 21.1565 9.97781 21.2 9.22885C21.2436 8.48057 21.2653 7.77161 21.2653 7.10195V6.88816H22.8978ZM16.5857 5.51988V16.5309H14.8654V11.2709H12.2978V16.5302H10.5565V5.51919H12.2978V9.85919H14.8661V5.51988H16.5864H16.5857ZM41.3343 16.5309H39.3964L36.7192 11.0999L36.5226 10.8654V16.5302H34.7813V5.51919H36.5226V10.522L36.7192 10.3082L39.0924 5.51919H40.9418L38.2 10.4792L41.3343 16.5295V16.5309ZM43.5754 11.0571C43.5754 12.3537 43.7791 13.373 44.1849 14.1144C44.5921 14.8557 45.2149 15.2261 46.0568 15.2261C46.3762 15.2261 46.7027 15.1799 47.0362 15.0882C47.3704 14.9944 47.6401 14.9054 47.8423 14.8192L48.0164 16.0385C47.6829 16.2385 47.3094 16.4123 46.8958 16.5626C46.4816 16.7123 46.0139 16.7868 45.4916 16.7868C44.3752 16.7868 43.4708 16.3316 42.7813 15.4192C42.0933 14.5068 41.7478 13.1957 41.7478 11.4854C41.7478 10.5447 41.8461 9.68954 42.0427 8.91988C42.2379 8.15023 42.5026 7.49437 42.8361 6.95299C43.1696 6.4123 43.5691 5.99161 44.0332 5.6923C44.4966 5.39299 44.998 5.24402 45.5358 5.24402C46.0132 5.24402 46.4457 5.30747 46.8305 5.43574C47.2146 5.56402 47.5593 5.73505 47.864 5.94885L46.9709 7.42471C46.7673 7.19574 46.5391 7.00402 46.285 6.84678C46.0322 6.69023 45.7745 6.6123 45.5126 6.6123C45.2086 6.6123 44.9327 6.73988 44.6862 6.99643C44.4405 7.25299 44.2369 7.58816 44.0768 8.00126C43.9174 8.41506 43.7938 8.88816 43.7067 9.42333C43.6197 9.95781 43.5761 10.5026 43.5761 11.0578L43.5754 11.0571ZM55.5327 13.973H56.3794L58.7035 5.48471C58.8762 4.84471 59.0286 4.22609 59.2231 3.37299H59.3108C59.2673 4.14126 59.2238 4.90885 59.2238 5.63505V16.3199H60.2657V1.06885H59.0496L56.4019 10.8164C56.2924 11.2006 56.1183 12.0109 56.0319 12.5868H55.9666C55.9013 12.0116 55.7489 11.2226 55.6408 10.8171L53.0134 1.06885H51.7538V16.3192H52.7087V5.63437C52.7087 4.8654 52.6877 4.09781 52.6441 3.3723H52.7094C52.84 4.07574 53.0141 4.7585 53.2311 5.54816L55.5313 13.9723L55.5327 13.973ZM64.8696 15.7226C65.8905 15.7226 66.6073 14.764 66.997 13.6109V10.6468H65.8245C64.0228 10.6468 63.1543 11.4571 63.1543 13.3337C63.1543 14.8482 63.8283 15.7226 64.8696 15.7226ZM67.3017 16.3199C67.2147 16.0426 67.1066 15.6371 67.042 14.8695C66.5203 15.8937 65.7381 16.5337 64.6526 16.5337C63.1767 16.5337 62.1559 15.382 62.1559 13.4192C62.1559 11.1157 63.4372 9.92126 65.8041 9.92126H66.9977V8.57781C66.9977 6.93505 66.3686 6.23092 65.1743 6.23092C64.2405 6.23092 63.3937 6.6585 62.8727 7.40471L62.5905 6.44471C63.0244 5.89023 63.9364 5.35643 65.1743 5.35643C66.9767 5.35643 67.9969 6.33781 67.9969 8.47092V14.3364C67.9969 15.0826 68.1064 15.9157 68.2356 16.3199H67.3017ZM73.3822 15.7226C74.7724 15.7226 75.6837 14.102 75.6837 10.7102C75.6837 7.89437 74.9023 6.23023 73.6427 6.23023C72.6653 6.23023 71.8403 7.25437 71.3628 8.40609V14.4199C71.7968 15.2957 72.4048 15.7213 73.3822 15.7213V15.7226ZM73.3169 16.5123C72.4926 16.5123 71.7757 16.1068 71.3636 15.5744V19.6475H70.3427V5.56954H71.233L71.32 7.33988C71.7975 6.31574 72.6014 5.35574 73.8168 5.35574C75.6409 5.35574 76.7053 7.51023 76.7053 10.6247C76.7053 14.5695 75.3587 16.5116 73.3176 16.5116L73.3169 16.5123ZM79.6803 10.7537L83.4802 16.3192H84.6106L80.744 10.5606L84.3487 5.57023H83.3503L79.6803 10.6254V5.57023H78.6594V16.3199H79.6796V10.7516L79.6803 10.7537ZM91.0154 14.5068L91.3412 15.3178C91.3412 15.3178 90.5169 16.5337 88.7798 16.5337C86.4558 16.5337 85.3921 14.4647 85.3921 10.9447C85.3921 7.42471 86.738 5.35574 88.5839 5.35574C90.4727 5.35574 91.6894 7.29712 91.3419 11.1144H86.3919C86.434 14.0592 87.2169 15.6592 88.8023 15.6592C90.2557 15.6592 91.0161 14.5075 91.0168 14.5061L91.0154 14.5068ZM88.5832 6.18954C87.4317 6.18954 86.4979 7.63919 86.4123 10.3275H90.3863C90.5604 7.46816 89.6912 6.18954 88.5839 6.18954H88.5832ZM98.5724 6.40195V5.56954H92.492V6.40126H95.0337V16.3185H96.0532V6.40195H98.5724Z" fill="#373737"/>
</svg>
