<svg width="21" height="22" viewBox="0 0 21 22" fill="none" xmlns="http://www.w3.org/2000/svg">
<path d="M5.87816 14.4853H18.1071C19.4938 14.4853 20.625 13.364 20.625 11.9895V6.88929C20.625 6.88477 20.625 6.87572 20.625 6.8712C20.625 6.85764 20.625 6.8486 20.625 6.83503C20.625 6.82599 20.625 6.81695 20.6204 6.8079C20.6204 6.79886 20.6159 6.7853 20.6159 6.77625C20.6159 6.76721 20.6113 6.75817 20.6113 6.74912C20.6068 6.74008 20.6068 6.73104 20.6022 6.71747C20.5976 6.70843 20.5976 6.69939 20.5931 6.69034C20.5885 6.6813 20.5885 6.67226 20.5839 6.66322C20.5794 6.65417 20.5748 6.64513 20.5703 6.63157C20.5657 6.62252 20.5611 6.61348 20.5566 6.60896C20.552 6.59992 20.5475 6.59087 20.5429 6.58183C20.5383 6.57279 20.5338 6.56826 20.5292 6.55922C20.5247 6.55018 20.5155 6.54114 20.511 6.53209C20.5064 6.52305 20.5018 6.51853 20.4927 6.50949C20.4882 6.50044 20.479 6.49592 20.4745 6.48688C20.4699 6.47784 20.4608 6.47331 20.4562 6.46427C20.4517 6.45523 20.4425 6.45071 20.438 6.44619C20.4289 6.43714 20.4243 6.43262 20.4152 6.42358C20.4061 6.41906 20.4015 6.41001 20.3924 6.40549C20.3832 6.40097 20.3741 6.39193 20.365 6.38741C20.3559 6.38288 20.3513 6.37836 20.3422 6.37384C20.3331 6.36932 20.324 6.3648 20.3148 6.35576C20.3057 6.35123 20.2966 6.34671 20.2875 6.34219C20.2783 6.33767 20.2692 6.33315 20.2601 6.32863C20.251 6.32411 20.2418 6.31959 20.2327 6.31506C20.2236 6.31054 20.2145 6.31054 20.2054 6.30602C20.1962 6.3015 20.1826 6.29698 20.1734 6.29698C20.1643 6.29698 20.1552 6.29246 20.1506 6.29246C20.1369 6.28793 20.1278 6.28793 20.1141 6.28793C20.1096 6.28793 20.105 6.28341 20.0959 6.28341L4.59642 4.16285V2.01968C4.59642 1.99707 4.59642 1.97446 4.59185 1.95638C4.59185 1.95186 4.59185 1.94734 4.58729 1.93829C4.58729 1.92473 4.58273 1.91116 4.58273 1.8976C4.57817 1.88403 4.57817 1.87499 4.57361 1.86143C4.57361 1.85238 4.56905 1.84786 4.56905 1.83882C4.56449 1.82526 4.55993 1.81169 4.55536 1.79813C4.55536 1.79361 4.5508 1.78456 4.5508 1.78004C4.54624 1.76648 4.54168 1.75743 4.53256 1.74387C4.528 1.73935 4.528 1.73031 4.52343 1.72578C4.51887 1.71674 4.51431 1.7077 4.50519 1.69866C4.50063 1.68961 4.49607 1.68509 4.4915 1.67605C4.48694 1.667 4.48238 1.66248 4.47782 1.65344C4.47326 1.6444 4.46414 1.63535 4.45958 1.62631C4.45501 1.62179 4.45045 1.61727 4.44589 1.61275C4.43677 1.6037 4.42765 1.59466 4.41852 1.58562C4.41396 1.5811 4.4094 1.57658 4.40484 1.57205C4.39572 1.56301 4.38659 1.55397 4.37291 1.54493C4.36835 1.5404 4.35923 1.53588 4.35466 1.53136C4.34554 1.52232 4.33642 1.5178 4.3273 1.50875C4.31361 1.49971 4.29993 1.49067 4.29081 1.48615C4.28624 1.48162 4.28168 1.48162 4.27712 1.4771C4.25888 1.46806 4.23607 1.45902 4.21782 1.44997L0.856109 0.0483231C0.541375 -0.0827992 0.181029 0.0618875 0.0487494 0.373868C-0.0835297 0.685849 0.0624335 1.04304 0.377167 1.17417L3.36029 2.42209V5.18922V5.6278V8.99177V11.9985V15.7966C3.36029 17.0626 4.31817 18.1115 5.5543 18.2698C5.33079 18.6406 5.19851 19.0746 5.19851 19.5358C5.19851 20.8968 6.31604 22 7.68445 22C9.05286 22 10.1704 20.8922 10.1704 19.5358C10.1704 19.0837 10.0472 18.6541 9.82829 18.2924H15.3658C15.1468 18.6586 15.0237 19.0837 15.0237 19.5358C15.0237 20.8968 16.1412 22 17.5096 22C18.878 22 19.9955 20.8922 19.9955 19.5358C19.9955 18.1794 18.878 17.0716 17.5096 17.0716H5.87816C5.16658 17.0716 4.59185 16.4974 4.59185 15.7966V14.1417C4.96589 14.3587 5.40834 14.4853 5.87816 14.4853ZM8.94338 19.5313C8.94338 20.2185 8.37778 20.7747 7.68901 20.7747C7.00025 20.7747 6.43464 20.214 6.43464 19.5313C6.43464 18.8485 7.00025 18.2879 7.68901 18.2879C8.37778 18.2879 8.94338 18.844 8.94338 19.5313ZM18.7685 19.5313C18.7685 20.2185 18.2029 20.7747 17.5142 20.7747C16.8254 20.7747 16.2598 20.214 16.2598 19.5313C16.2598 18.8485 16.8254 18.2879 17.5142 18.2879C18.2029 18.2879 18.7685 18.844 18.7685 19.5313ZM18.1071 13.2645H5.87816C5.16658 13.2645 4.59185 12.6903 4.59185 11.9895V8.98272V5.61876V5.39269L19.3934 7.41378V11.985C19.3934 12.6948 18.8141 13.2645 18.1071 13.2645Z" fill="#FCC607"/>
</svg>
