<svg width="24" height="24" viewBox="0 0 24 24" fill="none" xmlns="http://www.w3.org/2000/svg">
<path d="M23.2969 9.84364C23.6852 9.84364 24 9.52883 24 9.14052V6.32802C24 5.9397 23.6852 5.62489 23.2969 5.62489H21.8438V2.58008C21.8438 2.37922 21.7578 2.18797 21.6077 2.05456L19.4984 0.179563C19.232 -0.05725 18.8305 -0.05725 18.5641 0.179563L16.4547 2.05456C16.3047 2.18802 16.2188 2.37927 16.2188 2.58008V5.62489H14.8125V2.58008C14.8125 2.37922 14.7266 2.18797 14.5765 2.05456L12.4671 0.179563C12.2007 -0.05725 11.7992 -0.05725 11.5328 0.179563L9.42347 2.05456C9.27342 2.18802 9.1875 2.37927 9.1875 2.58008V5.62489H7.78125V2.58008C7.78125 2.37922 7.69533 2.18797 7.54523 2.05456L5.43586 0.179563C5.16947 -0.05725 4.76798 -0.05725 4.50159 0.179563L2.39222 2.05456C2.24217 2.18802 2.15625 2.37927 2.15625 2.58008V5.62489H0.703125C0.314812 5.62489 0 5.9397 0 6.32802V9.14052C0 9.52883 0.314812 9.84364 0.703125 9.84364H2.15625V16.4999H0.703125C0.314812 16.4999 0 16.8147 0 17.203V20.0155C0 20.4038 0.314812 20.7186 0.703125 20.7186H2.15625V23.2966C2.15625 23.6849 2.47106 23.9997 2.85938 23.9997H7.07812C7.46644 23.9997 7.78125 23.6849 7.78125 23.2966V20.7186H9.1875V23.2966C9.1875 23.6849 9.50231 23.9997 9.89062 23.9997H14.1094C14.4977 23.9997 14.8125 23.6849 14.8125 23.2966V20.7186H16.2188V23.2966C16.2188 23.6849 16.5336 23.9997 16.9219 23.9997H21.1406C21.5289 23.9997 21.8438 23.6849 21.8438 23.2966V20.7186H23.2969C23.6852 20.7186 24 20.4038 24 20.0155V17.203C24 16.8147 23.6852 16.4999 23.2969 16.4999H21.8438V9.84364H23.2969ZM17.625 2.89583L19.0312 1.64581L20.4375 2.89583V5.62489H17.625V2.89583ZM10.5938 2.89583L12 1.64581L13.4062 2.89583V5.62489H10.5938V2.89583ZM3.5625 2.89583L4.96875 1.64581L6.375 2.89583V5.62489H3.5625V2.89583ZM1.40625 7.03114H22.5938V8.43739H1.40625V7.03114ZM14.8125 16.4998V9.84359H16.2188V16.4998H14.8125ZM9.1875 9.84364V16.4999H7.78125V9.84364H9.1875ZM10.5938 9.84364H13.4062V16.4999H10.5938V9.84364ZM3.5625 9.84364H6.375V16.4999H3.5625V9.84364ZM6.375 22.5934H3.5625V20.7186H6.375V22.5934ZM13.4062 22.5934H10.5938V20.7186H13.4062V22.5934ZM20.4375 22.5934H17.625V20.7186H20.4375V22.5934ZM22.5938 19.3124H1.40625V17.9061H22.5938V19.3124ZM20.4375 16.4998H17.625V9.84359H20.4375V16.4998Z" fill="#FCC607"/>
</svg>
