<svg width="24" height="16" viewBox="0 0 24 16" fill="none" xmlns="http://www.w3.org/2000/svg">
<rect width="24" height="2" rx="1" transform="matrix(-1 0 0 1 24 0)" fill="#363636"/>
<rect width="24" height="2" rx="1" transform="matrix(-1 0 0 1 24 0)" fill="#363636"/>
<rect width="24" height="2" rx="1" transform="matrix(-1 0 0 1 24 0)" fill="#363636"/>
<rect width="20" height="2" rx="1" transform="matrix(-1 0 0 1 20 14)" fill="#363636"/>
<rect width="20" height="2" rx="1" transform="matrix(-1 0 0 1 20 14)" fill="#363636"/>
<rect width="20" height="2" rx="1" transform="matrix(-1 0 0 1 20 14)" fill="#363636"/>
<rect width="16" height="2" rx="1" transform="matrix(-1 0 0 1 16 7)" fill="#363636"/>
<rect width="16" height="2" rx="1" transform="matrix(-1 0 0 1 16 7)" fill="#363636"/>
<rect width="16" height="2" rx="1" transform="matrix(-1 0 0 1 16 7)" fill="#363636"/>
</svg>
