<svg width="18" height="18" viewBox="0 0 18 18" fill="none" xmlns="http://www.w3.org/2000/svg">
<path d="M16.5801 13.3426L13.3417 11.1829C12.9307 10.911 12.3798 11.0005 12.076 11.3885L11.1327 12.6013C11.0114 12.7612 10.7911 12.8076 10.6157 12.7101L10.4362 12.6112C9.8414 12.287 9.10126 11.8833 7.61001 10.3915C6.11876 8.89977 5.71429 8.15906 5.39006 7.56531L5.29167 7.38587C5.1929 7.21052 5.23839 6.98921 5.39831 6.86701L6.61038 5.92396C6.99819 5.6201 7.08777 5.06937 6.81622 4.65827L4.65654 1.41981C4.37824 1.00119 3.81988 0.87552 3.38904 1.13451L2.03484 1.94799C1.60934 2.19814 1.29716 2.60326 1.16378 3.07847C0.676132 4.85527 1.04298 7.92175 5.56019 12.4395C9.15353 16.0326 11.8286 16.9988 13.6673 16.9988C14.0904 17.0006 14.5119 16.9456 14.9204 16.8351C15.3957 16.7019 15.8009 16.3897 16.0509 15.9641L16.8652 14.6107C17.1246 14.1797 16.999 13.621 16.5801 13.3426ZM16.4058 14.3371L15.5934 15.6913C15.4139 15.9985 15.1224 16.2244 14.7801 16.3216C13.1398 16.7719 10.2741 16.3989 5.93745 12.0622C1.60074 7.72553 1.22777 4.86009 1.67811 3.21955C1.77547 2.87685 2.00162 2.58505 2.3092 2.40526L3.66341 1.59285C3.85035 1.48037 4.09269 1.53489 4.21345 1.71655L5.38662 3.47788L6.37129 4.95473C6.48921 5.13304 6.45046 5.37204 6.28224 5.50399L5.06989 6.44704C4.70094 6.72915 4.59558 7.23961 4.82274 7.64473L4.919 7.81965C5.25976 8.44462 5.68342 9.22209 7.23013 10.7686C8.77684 12.315 9.55407 12.7387 10.1788 13.0794L10.3539 13.1759C10.759 13.403 11.2695 13.2977 11.5516 12.9288L12.4947 11.7164C12.6266 11.5483 12.8655 11.5096 13.0439 11.6274L16.2821 13.787C16.4639 13.9077 16.5184 14.1502 16.4058 14.3371Z" fill="#FCC607" stroke="#FCC607" stroke-width="0.6"/>
</svg>
