<svg width="24" height="24" viewBox="0 0 24 24" fill="none" xmlns="http://www.w3.org/2000/svg">
<path d="M3.5625 23.25C4.7113 23.25 5.73303 22.6961 6.375 21.8414C7.01697 22.6961 8.0387 23.25 9.1875 23.25C10.3363 23.25 11.358 22.6961 12 21.8414C12.642 22.6961 13.6637 23.25 14.8125 23.25C15.9613 23.25 16.983 22.6961 17.625 21.8414C18.267 22.6961 19.2887 23.25 20.4375 23.25C21.3765 23.25 22.2656 22.8864 22.9411 22.2259C23.6239 21.5585 24 20.6737 24 19.7344C24 18.7037 24 1.33923 24 0.703125H0V19.7344C0 20.6737 0.376099 21.5585 1.0589 22.2259C1.73438 22.8864 2.62354 23.25 3.5625 23.25ZM3.5625 21.8438C2.39374 21.8438 1.40625 20.8779 1.40625 19.7344V16.8992C2.02625 17.3694 2.77679 17.625 3.5625 17.625C4.35333 17.625 5.08392 17.3624 5.67188 16.92V19.7344C5.67188 20.8975 4.72559 21.8438 3.5625 21.8438ZM16.9219 8.48438C16.9219 9.64746 15.9756 10.5938 14.8125 10.5938C13.6494 10.5938 12.7031 9.64746 12.7031 8.48438V4.92188H16.9219V8.48438ZM12.7031 11.295C13.2911 11.7374 14.0217 12 14.8125 12C15.6033 12 16.3339 11.7374 16.9219 11.295V14.1094C16.9219 15.2725 15.9756 16.2188 14.8125 16.2188C13.6494 16.2188 12.7031 15.2725 12.7031 14.1094V11.295ZM11.2969 8.48438C11.2969 9.64746 10.3506 10.5938 9.1875 10.5938C8.02441 10.5938 7.07812 9.64746 7.07812 8.48438V4.92188H11.2969V8.48438ZM7.07812 11.295C7.66608 11.7374 8.39667 12 9.1875 12C9.97833 12 10.7089 11.7374 11.2969 11.295V14.1094C11.2969 15.2725 10.3506 16.2188 9.1875 16.2188C8.02441 16.2188 7.07812 15.2725 7.07812 14.1094V11.295ZM9.1875 21.8438C8.02441 21.8438 7.07812 20.8975 7.07812 19.7344V16.92C7.66608 17.3624 8.39667 17.625 9.1875 17.625C9.97833 17.625 10.7089 17.3624 11.2969 16.92V19.7344C11.2969 20.8975 10.3506 21.8438 9.1875 21.8438ZM14.8125 21.8438C13.6494 21.8438 12.7031 20.8975 12.7031 19.7344V16.92C13.2911 17.3624 14.0217 17.625 14.8125 17.625C15.6033 17.625 16.3339 17.3624 16.9219 16.92V19.7344C16.9219 20.8975 15.9756 21.8438 14.8125 21.8438ZM20.4375 21.8438C19.2744 21.8438 18.3281 20.8975 18.3281 19.7344V16.92C18.9161 17.3624 19.6467 17.625 20.4375 17.625C21.2232 17.625 21.9738 17.3694 22.5938 16.8992V19.7344C22.5938 20.8779 21.6063 21.8438 20.4375 21.8438ZM20.4375 16.2188C19.2744 16.2188 18.3281 15.2725 18.3281 14.1094V11.295C18.9161 11.7374 19.6467 12 20.4375 12C21.2232 12 21.9738 11.7444 22.5938 11.2742V14.1094C22.5938 15.2529 21.6063 16.2188 20.4375 16.2188ZM20.4375 10.5938C19.2744 10.5938 18.3281 9.64746 18.3281 8.48438V4.92188H22.5938V8.48438C22.5938 9.62787 21.6063 10.5938 20.4375 10.5938ZM1.40625 2.10938H22.5938V3.51562C22.3925 3.51562 1.98212 3.51562 1.40625 3.51562V2.10938ZM1.40625 4.92188H5.67188V8.48438C5.67188 9.64746 4.72559 10.5938 3.5625 10.5938C2.39374 10.5938 1.40625 9.62787 1.40625 8.48438V4.92188ZM1.40625 11.2742C2.02625 11.7444 2.77679 12 3.5625 12C4.35333 12 5.08392 11.7374 5.67188 11.295V14.1094C5.67188 15.2725 4.72559 16.2188 3.5625 16.2188C2.39374 16.2188 1.40625 15.2529 1.40625 14.1094V11.2742Z" fill="#FCC607"/>
</svg>
